<svg width="208" height="149" viewBox="0 0 208 149" fill="none" xmlns="http://www.w3.org/2000/svg">
<path fill-rule="evenodd" clip-rule="evenodd" d="M152.048 103.183C161.025 110.204 181.555 151.689 194.174 148.308C208.424 144.489 211.851 111.071 201.828 73.6644C191.805 36.2583 185.882 7.27834 169.905 2.50979C163.758 0.675023 151.257 -3.07908 138 4.85092C124.742 12.7809 82.8318 12.7809 69.5741 4.85092C56.3164 -3.07908 43.8159 0.675023 37.6687 2.50979C21.6921 7.27834 15.7688 36.2583 5.74585 73.6644C-4.27708 111.071 -0.850415 144.489 13.3995 148.308C26.0187 151.689 46.5483 110.204 55.5254 103.183C61.7429 98.3201 79.4423 97.8295 91.0377 97.9874L121.089 97.9656C132.337 98.0179 146.6 98.922 152.048 103.183Z" fill="#595959"/>
<path d="M103.509 46.746C107.197 46.746 110.187 43.7562 110.187 40.068C110.187 36.3799 107.197 33.39 103.509 33.39C99.8208 33.39 96.831 36.3799 96.831 40.068C96.831 43.7562 99.8208 46.746 103.509 46.746Z" fill="#ED9111"/>
<path fill-rule="evenodd" clip-rule="evenodd" d="M80.136 63.441V53.424H70.119V63.441H60.102V73.458H70.119V83.475H80.136V73.458H90.153V63.441H80.136Z" fill="#FFDD95"/>
<path d="M46.746 50.085C54.1223 50.085 60.102 44.1053 60.102 36.729C60.102 29.3527 54.1223 23.373 46.746 23.373C39.3697 23.373 33.39 29.3527 33.39 36.729C33.39 44.1053 39.3697 50.085 46.746 50.085Z" fill="#E43535"/>
<path d="M126.882 83.475C134.258 83.475 140.238 77.4953 140.238 70.119C140.238 62.7427 134.258 56.763 126.882 56.763C119.506 56.763 113.526 62.7427 113.526 70.119C113.526 77.4953 119.506 83.475 126.882 83.475Z" fill="#80D25B"/>
<path fill-rule="evenodd" clip-rule="evenodd" d="M146.916 16.695H160.272V30.051L153.594 33.8341L146.916 30.051V16.695Z" fill="#ED9111"/>
<path fill-rule="evenodd" clip-rule="evenodd" d="M177.408 30.051V43.407H164.052L160.272 36.729L164.052 30.051H177.408Z" fill="#E43535"/>
<path fill-rule="evenodd" clip-rule="evenodd" d="M130.221 30.051V43.407H143.577L147.357 36.729L143.577 30.051H130.221Z" fill="#5EA7FF"/>
<path fill-rule="evenodd" clip-rule="evenodd" d="M146.916 57.207H160.272V43.851L153.594 40.068L146.916 43.851V57.207Z" fill="#22BA8E"/>
</svg>
