<svg width="496" height="368" viewBox="0 0 496 368" fill="none" xmlns="http://www.w3.org/2000/svg">
<path d="M134.333 105.533H180.2V343.4H134.333V105.533Z" fill="#DEBB7E"/>
<path d="M134.333 270.867C138.6 273 142.867 274.067 148.2 274.067C161 274.067 172.733 265.533 178.067 254.867C179.133 254.867 180.2 254.867 180.2 255.933V105.533H134.333V270.867Z" fill="#B89558"/>
<path d="M134.333 105.533H180.2V343.4H134.333V105.533Z" stroke="#45413C" stroke-miterlimit="10" stroke-linecap="round" stroke-linejoin="round"/>
<path d="M156.733 1C98.0667 1 50.0667 46.8667 45.8 104.467C19.1333 115.133 1 140.733 1 170.6C1 210.067 33 241 71.4 241C91.6667 241 109.8 232.467 122.6 218.6C133.267 221.8 145 223.933 156.733 223.933C218.6 223.933 267.667 173.8 267.667 113C267.667 52.2 218.6 1 156.733 1Z" fill="#6DD627"/>
<path d="M45.8 134.333C50.0667 76.7333 98.0667 30.8667 156.733 30.8667C213.267 30.8667 260.2 72.4667 266.6 127.933C267.667 122.6 267.667 118.333 267.667 113C267.667 51.1333 217.533 2.06667 156.733 2.06667C98.0667 2.06667 50.0667 47.9333 45.8 105.533C19.1333 116.2 1 141.8 1 171.667C1 177 2.06667 182.333 3.13333 186.6C7.4 162.067 23.4 142.867 45.8 134.333Z" fill="#9CEB60"/>
<path d="M156.733 1C98.0667 1 50.0667 46.8667 45.8 104.467C19.1333 115.133 1 140.733 1 170.6C1 210.067 33 241 71.4 241C91.6667 241 109.8 232.467 122.6 218.6C133.267 221.8 145 223.933 156.733 223.933C218.6 223.933 267.667 173.8 267.667 113C267.667 52.2 218.6 1 156.733 1Z" stroke="#45413C" stroke-miterlimit="10" stroke-linecap="round" stroke-linejoin="round"/>
<path d="M156.733 162.067L280.467 89.5333C285.8 86.3333 293.267 86.3333 298.6 89.5333L423.4 162.067C430.867 166.333 433 174.867 429.8 182.333C425.533 190.867 415.933 194.067 407.4 188.733L290.067 120.467L172.733 188.733C164.2 193 154.6 189.8 150.333 182.333C146.067 174.867 149.267 166.333 156.733 162.067Z" fill="#FF6242"/>
<path d="M151.4 184.467C152.467 182.333 154.6 181.267 156.733 180.2L280.467 107.667C285.8 104.467 293.267 104.467 298.6 107.667L423.4 180.2C425.533 181.267 427.667 183.4 428.733 184.467C428.733 183.4 429.8 183.4 429.8 182.333C433 174.867 430.867 166.333 423.4 162.067L298.6 89.5333C293.267 86.3333 285.8 86.3333 280.467 89.5333L155.667 162.067C148.2 166.333 146.067 174.867 149.267 182.333C150.333 183.4 150.333 184.467 151.4 184.467Z" fill="#FF866E"/>
<path d="M156.733 162.067L280.467 89.5333C285.8 86.3333 293.267 86.3333 298.6 89.5333L423.4 162.067C430.867 166.333 433 174.867 429.8 182.333C425.533 190.867 415.933 194.067 407.4 188.733L290.067 120.467L172.733 188.733C164.2 193 154.6 189.8 150.333 182.333C146.067 174.867 149.267 166.333 156.733 162.067Z" stroke="#45413C" stroke-miterlimit="10" stroke-linecap="round" stroke-linejoin="round"/>
<path opacity="0.15" d="M271.933 367.933C395.645 367.933 495.933 360.77 495.933 351.933C495.933 343.097 395.645 335.933 271.933 335.933C148.222 335.933 47.9333 343.097 47.9333 351.933C47.9333 360.77 148.222 367.933 271.933 367.933Z" fill="#45413C"/>
<path d="M399.933 343.4H180.2V184.467L290.067 120.467L399.933 184.467V343.4Z" fill="#FFFACF"/>
<path d="M290.067 120.467L180.2 184.467V210.067L290.067 146.067L399.933 210.067V184.467L290.067 120.467Z" fill="#FFF48C"/>
<path d="M399.933 343.4H180.2V184.467L290.067 120.467L399.933 184.467V343.4Z" stroke="#45413C" stroke-miterlimit="10" stroke-linecap="round" stroke-linejoin="round"/>
<path d="M303.933 343.4H198.333V329.533C198.333 324.2 202.6 319.933 207.933 319.933H295.4C300.733 319.933 305 324.2 305 329.533V343.4H303.933Z" fill="#E0E0E0" stroke="#45413C" stroke-miterlimit="10" stroke-linecap="round" stroke-linejoin="round"/>
<path d="M281.533 210.067H221.8C216.467 210.067 212.2 214.333 212.2 219.667V319.933H290.067V219.667C290.067 214.333 285.8 210.067 281.533 210.067Z" fill="#BF8256"/>
<path d="M281.533 210.067H221.8C216.467 210.067 212.2 214.333 212.2 219.667V237.8C212.2 232.467 216.467 228.2 221.8 228.2H281.533C286.867 228.2 291.133 232.467 291.133 237.8V219.667C290.067 214.333 285.8 210.067 281.533 210.067Z" fill="#915E3A"/>
<path d="M281.533 210.067H221.8C216.467 210.067 212.2 214.333 212.2 219.667V319.933H290.067V219.667C290.067 214.333 285.8 210.067 281.533 210.067Z" stroke="#45413C" stroke-miterlimit="10" stroke-linecap="round" stroke-linejoin="round"/>
<path d="M363.667 265.533H327.4C322.067 265.533 317.8 261.267 317.8 255.933V219.667C317.8 214.333 322.067 210.067 327.4 210.067H363.667C369 210.067 373.267 214.333 373.267 219.667V255.933C372.2 261.267 369 265.533 363.667 265.533Z" fill="#00B8F0"/>
<path d="M363.667 210.067H327.4C322.067 210.067 317.8 214.333 317.8 219.667V255.933C317.8 261.267 322.067 265.533 327.4 265.533H333.8L365.8 211.133C364.733 211.133 363.667 210.067 363.667 210.067Z" fill="#4ACFFF"/>
<path d="M262.333 269.8H239.933C234.6 269.8 230.333 265.533 230.333 260.2V237.8C230.333 232.467 234.6 228.2 239.933 228.2H262.333C267.667 228.2 271.933 232.467 271.933 237.8V260.2C271.933 265.533 267.667 269.8 262.333 269.8Z" fill="#00B8F0"/>
<path d="M262.333 228.2H239.933C234.6 228.2 230.333 232.467 230.333 237.8V260.2C230.333 265.533 234.6 269.8 239.933 269.8H242.067L265.533 229.267C264.467 229.267 263.4 228.2 262.333 228.2Z" fill="#4ACFFF"/>
<path d="M363.667 265.533H327.4C322.067 265.533 317.8 261.267 317.8 255.933V219.667C317.8 214.333 322.067 210.067 327.4 210.067H363.667C369 210.067 373.267 214.333 373.267 219.667V255.933C372.2 261.267 369 265.533 363.667 265.533Z" stroke="#45413C" stroke-miterlimit="10" stroke-linecap="round" stroke-linejoin="round"/>
<path d="M262.333 269.8H239.933C234.6 269.8 230.333 265.533 230.333 260.2V237.8C230.333 232.467 234.6 228.2 239.933 228.2H262.333C267.667 228.2 271.933 232.467 271.933 237.8V260.2C271.933 265.533 267.667 269.8 262.333 269.8Z" stroke="#45413C" stroke-miterlimit="10" stroke-linecap="round" stroke-linejoin="round"/>
<path d="M477.8 343.4C483.133 339.133 487.4 332.733 487.4 325.267C487.4 312.467 476.733 302.867 465 302.867C459.667 302.867 454.333 305 450.067 308.2C445.8 289 429.8 275.133 409.533 275.133C387.133 275.133 367.933 293.267 367.933 316.733C367.933 327.4 372.2 337 378.6 344.467H477.8V343.4Z" fill="#6DD627"/>
<path d="M409.533 293.267C429.8 293.267 445.8 307.133 450.067 326.333C454.333 323.133 458.6 321 465 321C474.6 321 482.067 326.333 486.333 334.867C487.4 331.667 488.467 329.533 488.467 325.267C488.467 312.467 477.8 302.867 466.067 302.867C460.733 302.867 455.4 305 451.133 308.2C446.867 289 430.867 275.133 410.6 275.133C388.2 275.133 369 293.267 369 316.733C369 319.933 369 323.133 370.067 326.333C373.267 307.133 389.267 293.267 409.533 293.267Z" fill="#9CEB60"/>
<path d="M477.8 343.4C483.133 339.133 487.4 332.733 487.4 325.267C487.4 312.467 476.733 302.867 465 302.867C459.667 302.867 454.333 305 450.067 308.2C445.8 289 429.8 275.133 409.533 275.133C387.133 275.133 367.933 293.267 367.933 316.733C367.933 327.4 372.2 337 378.6 344.467H477.8V343.4Z" stroke="#45413C" stroke-miterlimit="10" stroke-linecap="round" stroke-linejoin="round"/>
</svg>
