<svg width="197" height="218" viewBox="0 0 197 218" fill="white" xmlns="http://www.w3.org/2000/svg">
<path d="M114.917 18.1667H49.25C44.8961 18.1667 40.7204 20.0807 37.6417 23.4876C34.563 26.8945 32.8334 31.5152 32.8334 36.3333V181.667C32.8334 186.485 34.563 191.106 37.6417 194.512C40.7204 197.919 44.8961 199.833 49.25 199.833H147.75C152.104 199.833 156.28 197.919 159.358 194.512C162.437 191.106 164.167 186.485 164.167 181.667V72.6667M114.917 18.1667L164.167 72.6667M114.917 18.1667V72.6667H164.167M131.333 118.083H65.6667M131.333 154.417H65.6667M82.0834 81.75H65.6667" stroke="#1E1E1E" stroke-width="4" stroke-linecap="round" stroke-linejoin="round"/>
</svg>
